<svg width="100%" viewBox="0 0 219 40" fill="none" xmlns="http://www.w3.org/2000/svg">
<path d="M15.1779 27.6199C13.7923 27.6199 12.5399 27.3132 11.4208 26.6999C10.3149 26.0865 9.44226 25.2399 8.80275 24.1599C8.17656 23.0665 7.86346 21.8465 7.86346 20.4999C7.86346 19.1532 8.17656 17.9399 8.80275 16.8599C9.44226 15.7665 10.3216 14.9132 11.4407 14.2999C12.5599 13.6865 13.8123 13.3799 15.1979 13.3799C16.2371 13.3799 17.1964 13.5532 18.0757 13.8999C18.955 14.2465 19.7011 14.7532 20.314 15.4199L19.3747 16.3599C18.2822 15.2532 16.9033 14.6999 15.2379 14.6999C14.132 14.6999 13.1261 14.9532 12.2201 15.4599C11.3142 15.9665 10.6014 16.6599 10.0818 17.5399C9.57549 18.4199 9.32235 19.4066 9.32235 20.4999C9.32235 21.5932 9.57549 22.5799 10.0818 23.4599C10.6014 24.3399 11.3142 25.0332 12.2201 25.5399C13.1261 26.0466 14.132 26.2999 15.2379 26.2999C16.9166 26.2999 18.2955 25.7399 19.3747 24.6199L20.314 25.5599C19.7011 26.2266 18.9484 26.7399 18.0557 27.0999C17.1764 27.4465 16.2171 27.6199 15.1779 27.6199Z" fill="#0A0C11"></path>
<path d="M39.2816 27.6199C37.896 27.6199 36.6369 27.3132 35.5045 26.6999C34.3853 26.0732 33.506 25.2199 32.8665 24.1399C32.2403 23.0599 31.9272 21.8465 31.9272 20.4999C31.9272 19.1532 32.2403 17.9399 32.8665 16.8599C33.506 15.7799 34.3853 14.9332 35.5045 14.3199C36.6369 13.6932 37.896 13.3799 39.2816 13.3799C40.6672 13.3799 41.9129 13.6865 43.0187 14.2999C44.1379 14.9132 45.0172 15.7665 45.6567 16.8599C46.2962 17.9399 46.616 19.1532 46.616 20.4999C46.616 21.8465 46.2962 23.0665 45.6567 24.1599C45.0172 25.2399 44.1379 26.0865 43.0187 26.6999C41.9129 27.3132 40.6672 27.6199 39.2816 27.6199ZM39.2816 26.2999C40.3874 26.2999 41.3867 26.0532 42.2793 25.5599C43.172 25.0532 43.8714 24.3599 44.3777 23.4799C44.884 22.5865 45.1371 21.5932 45.1371 20.4999C45.1371 19.4066 44.884 18.4199 44.3777 17.5399C43.8714 16.6465 43.172 15.9532 42.2793 15.4599C41.3867 14.9532 40.3874 14.6999 39.2816 14.6999C38.1758 14.6999 37.1699 14.9532 36.2639 15.4599C35.3712 15.9532 34.6651 16.6465 34.1455 17.5399C33.6392 18.4199 33.3861 19.4066 33.3861 20.4999C33.3861 21.5932 33.6392 22.5865 34.1455 23.4799C34.6651 24.3599 35.3712 25.0532 36.2639 25.5599C37.1699 26.0532 38.1758 26.2999 39.2816 26.2999Z" fill="#0A0C11"></path>
<path d="M59.9232 13.4999H65.6189C67.0978 13.4999 68.4034 13.7999 69.5359 14.3999C70.6684 14.9865 71.5477 15.8132 72.1739 16.8799C72.8001 17.9332 73.1132 19.1399 73.1132 20.4999C73.1132 21.8599 72.8001 23.0732 72.1739 24.1399C71.5477 25.1932 70.6684 26.0199 69.5359 26.6199C68.4034 27.2065 67.0978 27.4999 65.6189 27.4999H59.9232V13.4999ZM65.5389 26.2199C66.7647 26.2199 67.8372 25.9799 68.7565 25.4999C69.6758 25.0065 70.3886 24.3332 70.8949 23.4799C71.4012 22.6132 71.6543 21.6199 71.6543 20.4999C71.6543 19.3799 71.4012 18.3932 70.8949 17.5399C70.3886 16.6732 69.6758 15.9999 68.7565 15.5199C67.8372 15.0265 66.7647 14.7799 65.5389 14.7799H61.4021V26.2199H65.5389Z" fill="#0A0C11"></path>
<path d="M96.319 26.2199V27.4999H86.4265V13.4999H96.0192V14.7799H87.9054V19.7599H95.1399V21.0199H87.9054V26.2199H96.319Z" fill="#0A0C11"></path>
<path d="M107.802 27.4999H117.794V28.4599H107.802V27.4999Z" fill="#0A0C11"></path>
<path d="M130.67 13.4999H132.149V26.2199H139.983V27.4999H130.67V13.4999Z" fill="#0A0C11"></path>
<path d="M162.323 26.2199V27.4999H152.431V13.4999H162.024V14.7799H153.91V19.7599H161.144V21.0199H153.91V26.2199H162.323Z" fill="#0A0C11"></path>
<path d="M184.565 23.7599H176.771L175.093 27.4999H173.554L179.949 13.4999H181.408L187.803 27.4999H186.244L184.565 23.7599ZM184.026 22.5599L180.668 15.0399L177.311 22.5599H184.026Z" fill="#0A0C11"></path>
<path d="M205.346 13.4999C207.131 13.4999 208.53 13.9265 209.542 14.7799C210.555 15.6332 211.061 16.8065 211.061 18.2999C211.061 19.7932 210.555 20.9665 209.542 21.8199C208.53 22.6599 207.131 23.0799 205.346 23.0799H201.588V27.4999H200.11V13.4999H205.346ZM205.306 21.7799C206.691 21.7799 207.75 21.4799 208.483 20.8799C209.216 20.2665 209.582 19.4065 209.582 18.2999C209.582 17.1665 209.216 16.2999 208.483 15.6999C207.75 15.0865 206.691 14.7799 205.306 14.7799H201.588V21.7799H205.306Z" fill="#0A0C11"></path>
</svg>